<?xml version="1.0" encoding="UTF-8"?>
<svg id="Layer_1" data-name="Layer 1" xmlns="http://www.w3.org/2000/svg" viewBox="0 0 619.31 619.3">
  <defs>
    <style>
      .cls-1 {
        fill: #bf994c;
        fill-rule: evenodd;
      }
    </style>
  </defs>
  <path class="cls-1" d="m579.01,407.34c26.83-26.83,40.1-62.36,40.3-97.7-.19-35.34-13.47-70.87-40.34-97.74l-85.79-85.79-11.71-11.71-34.28,34.28c.29-3.54.48-7.08.5-10.63-.19-35.34-13.51-70.91-40.33-97.74C380.53,13.47,344.99.2,309.65,0c-35.34.19-70.87,13.47-97.74,40.34l-85.79,85.79-11.71,11.71,34.29,34.29c-3.55-.29-7.11-.48-10.67-.5-35.34.19-70.91,13.51-97.74,40.33C13.47,238.79.2,274.33,0,309.67c.19,35.34,13.47,70.87,40.34,97.74l85.79,85.79,11.71,11.71,34.28-34.28c-.29,3.54-.48,7.08-.5,10.63.19,35.34,13.51,70.91,40.33,97.74,26.83,26.83,62.36,40.1,97.7,40.3,35.34-.19,70.87-13.47,97.74-40.34l85.79-85.79,11.71-11.71-34.29-34.29c3.55.29,7.11.48,10.67.5,35.34-.19,70.91-13.51,97.74-40.33Zm-195.24,148.08c-20.3,20.3-47.05,30.5-74.07,30.58-27.02.08-53.57-10.07-74.07-30.57-20.31-20.31-30.5-47.05-30.57-74.07-.08-27.02,10.27-53.77,30.57-74.07l15.42-15.42,23.43,23.43,12.51-12.51c6.03-6.03,6.03-15.8,0-21.83l-36.02-36.02h-.01s-74.06-74.05-74.06-74.05c-10.66-10.66-24.76-15.86-38.85-16.05-14.14.16-28.19,5.39-38.85,16.05-10.66,10.66-15.85,24.76-16.05,38.86.16,14.14,5.43,28.23,16.05,38.85l38.85,38.85,54.16-54.16,35.21,35.21-15.3,15.3c-.14.14-.27.29-.41.43l-73.71,73.71-74.11-74.11c-20.3-20.3-30.5-47.05-30.58-74.07-.08-27.02,10.07-53.57,30.57-74.07,20.31-20.31,47.05-30.5,74.07-30.57,27.02-.08,53.77,10.27,74.07,30.57l15.42,15.42-23.43,23.43,12.51,12.51c6.03,6.03,15.8,6.03,21.83,0l36.02-36.02h0s74.08-74.09,74.08-74.09c10.66-10.66,15.86-24.76,16.05-38.85-.16-14.14-5.39-28.19-16.05-38.85-10.66-10.66-24.76-15.85-38.86-16.05-14.14.16-28.23,5.43-38.85,16.05l-38.85,38.85,54.16,54.16-35.22,35.22-89.42-89.42,74.11-74.11c20.3-20.3,47.05-30.5,74.07-30.58,27.02-.08,53.57,10.07,74.07,30.57,20.31,20.31,30.5,47.05,30.57,74.07.08,27.02-10.27,53.77-30.57,74.08l-15.42,15.42-23.43-23.43-12.51,12.51c-6.03,6.03-6.03,15.8,0,21.83l36.02,36.02h.01s74.06,74.05,74.06,74.05c10.66,10.66,24.76,15.86,38.85,16.05,14.14-.16,28.19-5.39,38.85-16.05,10.66-10.66,15.85-24.76,16.05-38.86-.16-14.14-5.43-28.23-16.05-38.85l-38.85-38.85-54.16,54.16-35.21-35.21,15.3-15.3c.14-.14.27-.29.41-.43l73.71-73.71,74.11,74.11c20.3,20.3,30.5,47.05,30.58,74.07.08,27.02-10.07,53.57-30.57,74.07-20.31,20.31-47.05,30.5-74.07,30.57-27.02.08-53.77-10.27-74.07-30.57l-15.42-15.42,23.43-23.43-12.51-12.51c-6.03-6.03-15.8-6.03-21.83,0l-36.02,36.02h0s-74.08,74.09-74.08,74.09c-10.66,10.66-15.86,24.76-16.05,38.85.16,14.14,5.39,28.19,16.05,38.85,10.66,10.66,24.76,15.85,38.86,16.05,14.14-.16,28.23-5.43,38.85-16.05l38.85-38.85-54.16-54.16,35.22-35.22,89.42,89.42-74.11,74.11Zm-214.92-245.75l-30.69,30.69-15.42-15.42c-4.1-4.1-6.13-9.64-6.13-15.35-.04-5.66,2.03-11.24,6.13-15.35,4.1-4.1,9.64-6.13,15.34-6.13,5.66-.04,11.25,2.03,15.35,6.13l15.42,15.42Zm140.81-140.82l-30.69-30.69,15.42-15.42c4.1-4.1,9.64-6.13,15.35-6.13,5.66-.04,11.24,2.03,15.35,6.13,4.1,4.1,6.13,9.64,6.13,15.34.04,5.66-2.03,11.25-6.13,15.35l-15.42,15.42Zm140.81,140.79l30.69-30.69,15.42,15.42c4.1,4.1,6.13,9.64,6.13,15.35.04,5.66-2.03,11.24-6.13,15.35-4.1,4.1-9.64,6.13-15.34,6.13-5.66.04-11.25-2.03-15.35-6.13l-15.42-15.42Zm-140.81,140.82l30.81,30.81-.12-.12-15.42,15.42c-4.1,4.1-9.64,6.13-15.35,6.13-5.66.04-11.24-2.03-15.35-6.13-4.1-4.1-6.13-9.64-6.13-15.34-.04-5.66,2.03-11.25,6.13-15.35l15.42-15.42Z"/>
  <path class="cls-1" d="m294.65,332.11c.74.49,1.49.95,2.27,1.37.78.41,1.58.79,2.4,1.13.82.34,1.65.63,2.49.89.85.26,1.7.47,2.57.64.87.17,1.74.3,2.62.39.88.09,1.76.13,2.65.13s1.76-.04,2.65-.13c.88-.09,1.76-.22,2.62-.39.87-.17,1.72-.39,2.57-.64.84-.26,1.67-.55,2.5-.89.82-.34,1.61-.72,2.4-1.13.78-.42,1.53-.87,2.27-1.37.74-.49,1.44-1.02,2.13-1.58.68-.56,1.34-1.15,1.96-1.78.63-.63,1.22-1.28,1.78-1.96.56-.68,1.08-1.39,1.58-2.13.49-.74.94-1.49,1.36-2.27.42-.78.79-1.58,1.13-2.4.34-.82.63-1.65.89-2.5.26-.84.47-1.7.64-2.57.17-.87.3-1.74.39-2.62.09-.88.13-1.76.13-2.65s-.04-1.76-.13-2.64c-.09-.88-.22-1.76-.39-2.62-.17-.87-.39-1.72-.64-2.57-.25-.85-.55-1.68-.89-2.49-.34-.82-.72-1.62-1.13-2.4-.42-.78-.87-1.54-1.36-2.27-.49-.74-1.02-1.45-1.58-2.13-.56-.68-1.16-1.34-1.78-1.96-.62-.63-1.28-1.22-1.96-1.78-.68-.56-1.39-1.08-2.13-1.58-.74-.49-1.5-.94-2.27-1.36-.78-.42-1.58-.79-2.4-1.13-.82-.34-1.65-.64-2.5-.89-.85-.26-1.71-.47-2.57-.64-.87-.17-1.74-.3-2.62-.39-.88-.09-1.76-.13-2.65-.13s-1.77.05-2.65.13c-.88.09-1.75.22-2.62.39-.87.17-1.72.39-2.57.64-.85.25-1.68.55-2.49.89-.82.34-1.62.72-2.4,1.13-.78.42-1.54.87-2.27,1.36-.73.49-1.44,1.02-2.13,1.58-.68.56-1.34,1.16-1.96,1.78-.63.62-1.22,1.28-1.78,1.96-.56.68-1.09,1.39-1.58,2.13-.49.73-.95,1.49-1.36,2.27-.42.78-.8,1.58-1.13,2.4-.34.82-.64,1.65-.89,2.49-.26.84-.47,1.7-.64,2.57-.17.87-.3,1.74-.39,2.62-.09.88-.13,1.76-.13,2.64s.04,1.77.13,2.65c.09.88.22,1.75.39,2.62.17.87.39,1.72.64,2.57.26.85.55,1.68.89,2.5.34.82.72,1.61,1.13,2.4.41.78.87,1.54,1.36,2.27.49.73,1.02,1.45,1.58,2.13.56.69,1.15,1.34,1.78,1.96.63.63,1.28,1.22,1.96,1.78.68.56,1.39,1.09,2.13,1.58Z"/>
</svg>