<?xml version="1.0" encoding="UTF-8" standalone="no"?>
<svg
   xmlns:dc="http://purl.org/dc/elements/1.1/"
   xmlns:cc="http://creativecommons.org/ns#"
   xmlns:rdf="http://www.w3.org/1999/02/22-rdf-syntax-ns#"
   xmlns:svg="http://www.w3.org/2000/svg"
   xmlns="http://www.w3.org/2000/svg"
   viewBox="0 0 240 62.666668"
   height="62.666668"
   width="240"
   xml:space="preserve"
   id="svg2"
   version="1.1"><metadata
     id="metadata8"><rdf:RDF><cc:Work
         rdf:about=""><dc:format>image/svg+xml</dc:format><dc:type
           rdf:resource="http://purl.org/dc/dcmitype/StillImage" /></cc:Work></rdf:RDF></metadata><defs
     id="defs6"><clipPath
       id="clipPath18"
       clipPathUnits="userSpaceOnUse"><path
         id="path16"
         d="M 0,47 H 180 V 0 H 0 Z" /></clipPath></defs><g
     transform="matrix(1.3333333,0,0,-1.3333333,0,62.666667)"
     id="g10"><g
       id="g12"><g
         clip-path="url(#clipPath18)"
         id="g14"><g
           transform="translate(158.5166,2.172)"
           id="g20"><path
             id="path22"
             style="fill:#000000;fill-opacity:1;fill-rule:evenodd;stroke:none"
             d="m 0,0 c 1.251,0 2.397,0.258 3.437,0.777 1.046,0.517 1.951,1.433 2.715,2.747 0.764,1.313 1.363,3.092 1.796,5.335 0.434,2.245 0.651,5.078 0.651,8.499 0,3.42 -0.217,6.252 -0.651,8.495 -0.433,2.245 -1.032,4.024 -1.796,5.336 -0.764,1.312 -1.669,2.228 -2.715,2.747 -1.04,0.52 -2.186,0.78 -3.437,0.78 -1.251,0 -2.397,-0.26 -3.442,-0.78 -1.043,-0.519 -1.946,-1.435 -2.71,-2.747 -0.762,-1.312 -1.361,-3.091 -1.796,-5.336 -0.434,-2.243 -0.651,-5.075 -0.651,-8.495 0,-3.421 0.217,-6.254 0.651,-8.499 0.435,-2.243 1.034,-4.022 1.796,-5.335 0.764,-1.314 1.667,-2.23 2.71,-2.747 C -2.397,0.258 -1.251,0 0,0 m 20.997,17.358 c 0,-2.713 -0.506,-5.242 -1.516,-7.586 C 18.471,7.43 17.046,5.387 15.203,3.643 13.361,1.901 11.145,0.537 8.556,-0.449 5.969,-1.435 3.119,-1.929 0,-1.929 c -3.119,0 -5.971,0.494 -8.56,1.48 -2.587,0.986 -4.801,2.35 -6.643,4.092 -1.843,1.744 -3.27,3.787 -4.281,6.129 -1.009,2.344 -1.512,4.873 -1.512,7.586 0,2.713 0.503,5.241 1.512,7.582 1.011,2.342 2.438,4.385 4.281,6.129 1.842,1.744 4.056,3.109 6.643,4.097 2.589,0.986 5.441,1.48 8.56,1.48 3.119,0 5.969,-0.494 8.556,-1.48 2.589,-0.988 4.805,-2.353 6.647,-4.097 1.843,-1.744 3.268,-3.787 4.278,-6.129 1.01,-2.341 1.516,-4.869 1.516,-7.582" /></g><g
           transform="translate(17.0676,36.8874)"
           id="g24"><path
             id="path26"
             style="fill:#000000;fill-opacity:1;fill-rule:evenodd;stroke:none"
             d="m 0,0 v -34.714 h 1.104 c 1.507,0 2.931,0.275 4.271,0.826 1.34,0.55 2.497,1.487 3.47,2.809 0.972,1.322 1.734,3.093 2.285,5.315 0.553,2.225 0.792,5.027 0.717,8.407 -0.072,3.307 -0.385,6.071 -0.935,8.294 -0.551,2.221 -1.304,4.002 -2.26,5.343 C 7.697,-2.38 6.577,-1.425 5.291,-0.854 4.006,-0.285 2.611,0 1.104,0 Z m -16.53,-34.992 h 4.409 V 0.278 H -16.53 V 1.93 H 1.104 c 3.709,0 7.016,-0.505 9.917,-1.515 2.901,-1.01 5.352,-2.38 7.354,-4.107 2.004,-1.727 3.528,-3.767 4.574,-6.117 1.047,-2.352 1.571,-4.867 1.571,-7.548 0,-2.682 -0.524,-5.199 -1.571,-7.552 -1.046,-2.352 -2.57,-4.391 -4.574,-6.118 -2.002,-1.725 -4.453,-3.093 -7.354,-4.102 C 8.12,-36.14 4.813,-36.645 1.104,-36.645 H -16.53 Z" /></g><g
           transform="translate(115.8436,28.3478)"
           id="g28"><path
             id="path30"
             style="fill:#000000;fill-opacity:1;fill-rule:evenodd;stroke:none"
             d="m 0,0 c 0,1.432 -0.156,2.689 -0.467,3.772 -0.313,1.085 -0.736,1.976 -1.27,2.672 -0.532,0.698 -1.147,1.222 -1.845,1.572 -0.696,0.348 -1.43,0.524 -2.2,0.524 H -7.439 V -8.544 h 1.657 c 0.77,0 1.504,0.175 2.2,0.524 0.698,0.349 1.313,0.873 1.845,1.572 0.534,0.698 0.957,1.589 1.27,2.672 C -0.156,-2.694 0,-1.435 0,0 m 4.409,-28.105 -11.57,17.635 h -0.278 v -15.983 h 3.309 v -1.652 h -19.838 v 1.652 h 4.408 V 8.818 h -4.408 V 10.47 H -4.13 c 3.083,0 5.7,-0.258 7.85,-0.774 C 5.868,9.182 7.604,8.457 8.926,7.52 10.249,6.585 11.205,5.474 11.791,4.187 12.379,2.9 12.673,1.504 12.673,0 c 0,-1.507 -0.294,-2.904 -0.882,-4.191 C 11.205,-5.476 10.249,-6.587 8.926,-7.524 7.604,-8.459 5.868,-9.184 3.72,-9.7 c -2.15,-0.514 -4.767,-0.77 -7.85,-0.77 h -0.552 v -0.278 l 13.168,-4.409 7.717,-11.296 h 3.083 v -1.652 z" /></g><g
           transform="translate(87.2584,37.1655)"
           id="g32"><path
             id="path34"
             style="fill:#000000;fill-opacity:1;fill-rule:evenodd;stroke:none"
             d="m 0,0 h -4.344 v -23.437 c 0,-8.991 -4.701,-13.486 -14.104,-13.486 -3.039,0 -5.698,0.351 -7.978,1.05 -2.277,0.702 -4.176,1.655 -5.696,2.86 -1.519,1.205 -2.673,2.625 -3.413,4.261 -0.741,1.639 -1.111,3.41 -1.111,5.315 V 0 h -4.408 v 1.652 h 20.436 V 0 h -3.906 v -24.246 c 0,-3.775 0.786,-6.517 2.36,-8.226 1.573,-1.711 3.697,-2.565 6.7,-2.565 1.301,0 2.512,0.243 3.634,0.73 1.12,0.487 2.096,1.206 2.927,2.158 0.834,0.952 1.484,2.112 1.952,3.48 0.47,1.367 0.706,2.933 0.706,4.695 v 19.42 L -13.838,0 V 1.652 L 0,1.652 Z" /></g><path
           id="path36"
           style="fill:#000000;fill-opacity:1;fill-rule:evenodd;stroke:none"
           d="m 149.637,46.757 h 17.809 v -1.862 h -17.809 z" /></g></g></g></svg>