<?xml version="1.0" encoding="UTF-8" standalone="no"?>
<svg
   xmlns:dc="http://purl.org/dc/elements/1.1/"
   xmlns:cc="http://creativecommons.org/ns#"
   xmlns:rdf="http://www.w3.org/1999/02/22-rdf-syntax-ns#"
   xmlns:svg="http://www.w3.org/2000/svg"
   xmlns="http://www.w3.org/2000/svg"
   viewBox="0 0 240 186.66667"
   height="186.66667"
   width="240"
   xml:space="preserve"
   id="svg2"
   version="1.1"><metadata
     id="metadata8"><rdf:RDF><cc:Work
         rdf:about=""><dc:format>image/svg+xml</dc:format><dc:type
           rdf:resource="http://purl.org/dc/dcmitype/StillImage" /></cc:Work></rdf:RDF></metadata><defs
     id="defs6"><clipPath
       id="clipPath18"
       clipPathUnits="userSpaceOnUse"><path
         id="path16"
         d="M 0,140 H 180 V 0 H 0 Z" /></clipPath></defs><g
     transform="matrix(1.3333333,0,0,-1.3333333,0,186.66667)"
     id="g10"><g
       id="g12"><g
         clip-path="url(#clipPath18)"
         id="g14"><g
           transform="translate(90.1071,87.5484)"
           id="g20"><path
             id="path22"
             style="fill:#bf994c;fill-opacity:1;fill-rule:evenodd;stroke:none"
             d="M 0,0 3.567,-3.567 3.553,-3.553 1.768,-5.339 c -0.475,-0.475 -1.117,-0.71 -1.777,-0.71 -0.655,-0.004 -1.302,0.235 -1.777,0.71 -0.474,0.475 -0.709,1.117 -0.709,1.776 -0.005,0.656 0.235,1.303 0.709,1.777 z m 16.302,16.303 3.553,3.554 1.786,-1.786 c 0.475,-0.475 0.71,-1.117 0.71,-1.777 0.004,-0.655 -0.235,-1.302 -0.71,-1.777 -0.475,-0.474 -1.117,-0.709 -1.776,-0.709 -0.656,-0.005 -1.303,0.235 -1.777,0.71 z M 0,32.603 l -3.553,3.553 1.785,1.786 c 0.475,0.475 1.117,0.71 1.777,0.71 0.656,0.004 1.302,-0.235 1.777,-0.71 0.475,-0.475 0.71,-1.117 0.71,-1.777 C 2.5,35.51 2.261,34.863 1.786,34.389 Z M -16.302,16.3 l -3.553,-3.554 -1.786,1.786 c -0.474,0.475 -0.709,1.116 -0.709,1.777 -0.005,0.655 0.234,1.302 0.709,1.776 0.475,0.475 1.117,0.71 1.777,0.71 0.655,0.005 1.302,-0.235 1.777,-0.71 z M 8.581,-12.152 c -2.351,-2.35 -5.448,-3.53 -8.576,-3.54 -3.129,-0.009 -6.203,1.167 -8.576,3.54 -2.351,2.351 -3.531,5.448 -3.54,8.576 -0.009,3.129 1.189,6.225 3.54,8.576 l 1.785,1.786 2.713,-2.713 1.449,1.449 c 0.698,0.698 0.698,1.83 0,2.528 l -4.171,4.17 -0.001,-0.001 -8.574,8.574 c -1.235,1.234 -2.867,1.836 -4.499,1.858 -1.636,-0.018 -3.264,-0.623 -4.498,-1.858 -1.234,-1.234 -1.835,-2.866 -1.858,-4.498 0.018,-1.636 0.628,-3.268 1.858,-4.498 l 4.498,-4.498 6.271,6.27 4.076,-4.077 -1.771,-1.77 c -0.016,-0.017 -0.031,-0.034 -0.047,-0.05 l -8.533,-8.533 -8.581,8.58 c -2.35,2.351 -3.53,5.448 -3.539,8.576 -0.009,3.129 1.166,6.203 3.539,8.576 2.351,2.351 5.448,3.531 8.576,3.54 3.129,0.009 6.225,-1.189 8.576,-3.54 l 1.786,-1.786 -2.713,-2.712 1.449,-1.449 c 0.698,-0.698 1.83,-0.698 2.528,0 l 4.17,4.17 -0.001,10e-4 8.577,8.577 c 1.234,1.234 1.835,2.866 1.858,4.498 -0.018,1.636 -0.624,3.264 -1.858,4.498 -1.234,1.234 -2.866,1.835 -4.498,1.858 -1.637,-0.018 -3.269,-0.628 -4.499,-1.858 L -9.001,36.17 -2.73,29.9 -6.808,25.822 -17.161,36.174 -8.58,44.755 c 2.35,2.35 5.447,3.53 8.576,3.539 3.128,0.01 6.202,-1.166 8.575,-3.539 2.351,-2.351 3.531,-5.448 3.54,-8.576 0.009,-3.129 -1.189,-6.225 -3.54,-8.576 L 6.786,25.817 4.073,28.53 2.625,27.081 c -0.698,-0.698 -0.698,-1.83 0,-2.528 l 4.17,-4.17 0.001,0.001 8.575,-8.574 c 1.234,-1.234 2.866,-1.836 4.498,-1.858 1.636,0.018 3.264,0.623 4.498,1.857 1.234,1.235 1.835,2.867 1.858,4.499 -0.018,1.636 -0.628,3.268 -1.858,4.498 l -4.498,4.498 -6.27,-6.27 -4.077,4.076 1.771,1.771 c 0.016,0.017 0.031,0.034 0.047,0.05 l 8.533,8.533 8.581,-8.58 c 2.35,-2.351 3.531,-5.448 3.54,-8.576 0.009,-3.129 -1.167,-6.203 -3.54,-8.576 -2.351,-2.351 -5.448,-3.531 -8.576,-3.54 -3.129,-0.009 -6.225,1.189 -8.576,3.54 l -1.786,1.786 2.713,2.712 -1.449,1.449 c -0.698,0.698 -1.83,0.698 -2.528,0 L 4.082,9.509 4.083,9.508 -4.493,0.931 c -1.235,-1.234 -1.836,-2.866 -1.859,-4.498 0.019,-1.636 0.624,-3.264 1.858,-4.498 1.235,-1.234 2.867,-1.835 4.499,-1.858 1.636,0.018 3.268,0.628 4.498,1.858 l 4.498,4.498 -6.27,6.27 4.078,4.078 10.352,-10.352 z M 31.184,4.992 c 3.106,3.106 4.643,7.22 4.666,11.311 -0.023,4.092 -1.56,8.205 -4.67,11.316 l -9.932,9.932 -1.357,1.356 -3.968,-3.968 c 0.034,0.41 0.056,0.82 0.058,1.231 -0.023,4.091 -1.564,8.209 -4.67,11.315 -3.106,3.106 -7.22,4.643 -11.311,4.666 -4.091,-0.023 -8.205,-1.56 -11.315,-4.67 l -9.933,-9.933 -1.356,-1.356 3.97,-3.969 c -0.411,0.033 -0.823,0.055 -1.235,0.057 -4.091,-0.022 -8.209,-1.563 -11.315,-4.669 -3.106,-3.106 -4.643,-7.22 -4.666,-11.311 0.023,-4.092 1.56,-8.205 4.671,-11.316 l 9.932,-9.932 1.356,-1.356 3.968,3.968 c -0.033,-0.41 -0.055,-0.82 -0.058,-1.231 0.023,-4.091 1.564,-8.21 4.67,-11.315 3.106,-3.106 7.22,-4.643 11.311,-4.666 4.091,0.023 8.205,1.56 11.316,4.67 l 9.932,9.933 1.356,1.356 -3.97,3.969 c 0.411,-0.033 0.823,-0.055 1.235,-0.057 4.091,0.022 8.21,1.563 11.315,4.669" /></g><g
           transform="translate(88.3702,101.2504)"
           id="g24"><path
             id="path26"
             style="fill:#bf994c;fill-opacity:1;fill-rule:evenodd;stroke:none"
             d="m 0,0 c 0.085,-0.057 0.173,-0.11 0.263,-0.158 0.09,-0.048 0.183,-0.092 0.278,-0.131 0.094,-0.039 0.19,-0.073 0.288,-0.103 0.099,-0.03 0.197,-0.055 0.298,-0.075 0.101,-0.02 0.201,-0.035 0.303,-0.045 0.102,-0.01 0.205,-0.015 0.307,-0.015 0.102,0 0.204,0.005 0.306,0.015 0.102,0.01 0.204,0.025 0.304,0.045 0.1,0.02 0.199,0.045 0.298,0.075 0.097,0.03 0.193,0.064 0.289,0.103 0.094,0.039 0.186,0.083 0.277,0.131 0.09,0.048 0.177,0.101 0.263,0.158 0.085,0.057 0.167,0.118 0.246,0.183 0.079,0.064 0.155,0.133 0.227,0.206 0.073,0.072 0.142,0.148 0.207,0.227 0.064,0.079 0.125,0.161 0.182,0.247 0.057,0.085 0.11,0.172 0.158,0.263 0.048,0.09 0.092,0.182 0.131,0.277 0.039,0.094 0.074,0.191 0.103,0.289 0.03,0.098 0.055,0.197 0.075,0.297 0.02,0.101 0.035,0.202 0.045,0.304 0.01,0.102 0.015,0.204 0.015,0.306 0,0.103 -0.005,0.205 -0.015,0.307 C 4.838,3.008 4.823,3.109 4.803,3.209 4.783,3.31 4.758,3.409 4.728,3.507 4.699,3.605 4.664,3.701 4.625,3.795 4.586,3.89 4.542,3.983 4.494,4.073 4.446,4.163 4.393,4.251 4.336,4.336 4.279,4.422 4.218,4.503 4.154,4.583 4.089,4.662 4.02,4.738 3.947,4.81 3.875,4.882 3.799,4.951 3.72,5.016 3.641,5.081 3.559,5.142 3.474,5.199 3.388,5.256 3.301,5.308 3.211,5.356 3.12,5.405 3.028,5.448 2.934,5.488 2.838,5.527 2.742,5.561 2.645,5.591 2.546,5.621 2.447,5.645 2.347,5.665 2.247,5.685 2.145,5.701 2.043,5.71 1.941,5.72 1.839,5.726 1.737,5.726 1.635,5.726 1.532,5.72 1.43,5.71 1.328,5.701 1.228,5.685 1.127,5.665 1.026,5.645 0.928,5.621 0.829,5.591 0.731,5.561 0.635,5.527 0.541,5.488 0.446,5.448 0.353,5.405 0.263,5.356 0.173,5.308 0.085,5.256 0,5.199 -0.085,5.142 -0.167,5.081 -0.246,5.016 -0.326,4.951 -0.401,4.882 -0.474,4.81 -0.546,4.738 -0.615,4.662 -0.68,4.583 -0.745,4.503 -0.806,4.422 -0.862,4.336 -0.919,4.251 -0.972,4.163 -1.02,4.073 -1.068,3.983 -1.112,3.89 -1.151,3.795 -1.191,3.701 -1.225,3.605 -1.255,3.507 -1.285,3.409 -1.309,3.31 -1.329,3.209 -1.349,3.109 -1.364,3.008 -1.375,2.906 -1.385,2.804 -1.389,2.702 -1.389,2.599 c 0,-0.102 0.004,-0.204 0.014,-0.306 0.011,-0.102 0.026,-0.203 0.046,-0.304 0.02,-0.1 0.044,-0.199 0.074,-0.297 0.03,-0.098 0.064,-0.195 0.104,-0.289 C -1.112,1.308 -1.068,1.216 -1.02,1.126 -0.972,1.035 -0.919,0.948 -0.862,0.863 -0.806,0.777 -0.745,0.695 -0.68,0.616 -0.615,0.537 -0.546,0.461 -0.474,0.389 -0.401,0.316 -0.326,0.247 -0.246,0.183 -0.167,0.118 -0.085,0.057 0,0" /></g><g
           transform="translate(157.5128,20.8146)"
           id="g28"><path
             id="path30"
             style="fill:#bf994c;fill-opacity:1;fill-rule:evenodd;stroke:none"
             d="m 0,0 c 1.233,0 2.362,0.255 3.387,0.765 1.03,0.51 1.922,1.413 2.675,2.707 0.753,1.294 1.343,3.047 1.769,5.257 0.428,2.212 0.642,5.004 0.642,8.375 0,3.369 -0.214,6.16 -0.642,8.37 -0.426,2.213 -1.016,3.966 -1.769,5.257 -0.753,1.294 -1.645,2.197 -2.675,2.707 -1.025,0.513 -2.154,0.77 -3.387,0.77 -1.233,0 -2.362,-0.257 -3.392,-0.77 -1.027,-0.51 -1.917,-1.413 -2.67,-2.707 -0.751,-1.291 -1.341,-3.044 -1.769,-5.257 -0.428,-2.21 -0.642,-5.001 -0.642,-8.37 0,-3.371 0.214,-6.163 0.642,-8.375 0.428,-2.21 1.018,-3.963 1.769,-5.257 0.753,-1.294 1.643,-2.197 2.67,-2.707 C -2.362,0.255 -1.233,0 0,0 m 20.69,17.104 c 0,-2.673 -0.499,-5.166 -1.494,-7.475 C 18.201,7.322 16.796,5.308 14.981,3.59 13.165,1.873 10.982,0.529 8.43,-0.443 5.882,-1.414 3.073,-1.901 0,-1.901 c -3.073,0 -5.884,0.487 -8.435,1.458 -2.549,0.972 -4.73,2.316 -6.546,4.033 -1.815,1.718 -3.222,3.732 -4.217,6.039 -0.995,2.309 -1.491,4.802 -1.491,7.475 0,2.673 0.496,5.163 1.491,7.471 0.995,2.307 2.402,4.32 4.217,6.039 1.816,1.718 3.997,3.063 6.546,4.036 2.551,0.972 5.362,1.459 8.435,1.459 3.073,0 5.882,-0.487 8.43,-1.459 2.552,-0.973 4.735,-2.318 6.551,-4.036 1.815,-1.719 3.22,-3.732 4.215,-6.039 0.995,-2.308 1.494,-4.798 1.494,-7.471" /></g><g
           transform="translate(18.1369,55.0211)"
           id="g32"><path
             id="path34"
             style="fill:#bf994c;fill-opacity:1;fill-rule:evenodd;stroke:none"
             d="m 0,0 v -34.206 h 1.088 c 1.485,0 2.887,0.272 4.209,0.815 1.32,0.542 2.459,1.465 3.418,2.767 0.958,1.303 1.709,3.048 2.252,5.238 0.544,2.192 0.78,4.953 0.706,8.283 -0.071,3.258 -0.379,5.982 -0.921,8.172 -0.543,2.189 -1.285,3.945 -2.227,5.266 -0.94,1.32 -2.044,2.261 -3.312,2.823 C 3.948,-0.281 2.573,0 1.088,0 Z m -16.287,-34.48 h 4.343 V 0.274 h -4.343 V 1.902 H 1.088 c 3.655,0 6.913,-0.498 9.771,-1.493 2.859,-0.996 5.274,-2.345 7.247,-4.046 1.974,-1.703 3.476,-3.712 4.506,-6.028 1.033,-2.317 1.549,-4.796 1.549,-7.438 0,-2.642 -0.516,-5.122 -1.549,-7.441 -1.03,-2.317 -2.532,-4.327 -4.506,-6.028 -1.973,-1.7 -4.388,-3.048 -7.247,-4.042 -2.858,-0.996 -6.116,-1.494 -9.771,-1.494 h -17.375 z" /></g><g
           transform="translate(115.4652,46.6068)"
           id="g36"><path
             id="path38"
             style="fill:#bf994c;fill-opacity:1;fill-rule:evenodd;stroke:none"
             d="M 0,0 C 0,1.411 -0.154,2.65 -0.46,3.717 -0.768,4.786 -1.185,5.664 -1.711,6.35 -2.235,7.038 -2.842,7.554 -3.53,7.898 -4.216,8.242 -4.938,8.415 -5.698,8.415 H -7.33 V -8.418 h 1.632 c 0.76,0 1.482,0.171 2.168,0.516 0.688,0.343 1.295,0.86 1.819,1.549 0.526,0.688 0.943,1.565 1.251,2.632 C -0.154,-2.654 0,-1.414 0,0 m 4.344,-27.693 -11.4,17.376 H -7.33 v -15.748 h 3.26 v -1.628 h -19.547 v 1.628 h 4.344 V 8.688 h -4.344 v 1.628 H -4.07 c 3.039,0 5.617,-0.253 7.735,-0.762 C 5.782,9.048 7.493,8.333 8.795,7.41 10.099,6.489 11.04,5.394 11.618,4.126 12.198,2.857 12.488,1.482 12.488,0 c 0,-1.485 -0.29,-2.862 -0.87,-4.13 C 11.04,-5.395 10.099,-6.49 8.795,-7.414 7.493,-8.335 5.782,-9.05 3.665,-9.558 1.547,-10.064 -1.031,-10.317 -4.07,-10.317 h -0.544 v -0.273 l 12.976,-4.345 7.604,-11.13 h 3.037 v -1.628 z" /></g><g
           transform="translate(87.299,55.2952)"
           id="g40"><path
             id="path42"
             style="fill:#bf994c;fill-opacity:1;fill-rule:evenodd;stroke:none"
             d="m 0,0 h -4.281 v -23.094 c 0,-8.858 -4.632,-13.288 -13.896,-13.288 -2.995,0 -5.616,0.346 -7.861,1.035 -2.244,0.692 -4.116,1.63 -5.614,2.818 -1.496,1.187 -2.633,2.587 -3.362,4.199 -0.73,1.614 -1.095,3.36 -1.095,5.236 V 0 h -4.343 v 1.628 h 20.136 V 0 h -3.849 v -23.891 c 0,-3.719 0.775,-6.421 2.326,-8.105 1.55,-1.686 3.643,-2.527 6.601,-2.527 1.283,0 2.476,0.239 3.581,0.719 1.104,0.479 2.066,1.188 2.885,2.127 0.821,0.937 1.462,2.08 1.923,3.428 0.463,1.348 0.696,2.89 0.696,4.627 V -4.487 L -13.635,0 V 1.628 L 0,1.628 Z" /></g><path
           id="path44"
           style="fill:#bf994c;fill-opacity:1;fill-rule:evenodd;stroke:none"
           d="m 148.763,64.747 h 17.548 v -1.835 h -17.548 z" /><g
           transform="translate(22.9715,1.1136)"
           id="g46"><path
             id="path48"
             style="fill:#bf994c;fill-opacity:1;fill-rule:nonzero;stroke:none"
             d="M 0,0 H -0.691 V 7.132 L 3.078,1.775 v 4.933 h 0.69 V -0.414 L 0,4.942 Z" /></g><path
           id="path50"
           style="fill:#bf994c;fill-opacity:1;fill-rule:nonzero;stroke:none"
           d="m 32.17,7.821 h 0.691 V 1.113 H 32.17 Z" /><g
           transform="translate(43.2218,1.6116)"
           id="g52"><path
             id="path54"
             style="fill:#bf994c;fill-opacity:1;fill-rule:nonzero;stroke:none"
             d="m 0,0 c -0.572,-0.398 -1.2,-0.597 -1.884,-0.597 -0.929,0 -1.722,0.342 -2.377,1.026 -0.645,0.672 -0.967,1.478 -0.967,2.417 0,0.466 0.085,0.909 0.256,1.327 0.172,0.417 0.408,0.784 0.711,1.099 0.655,0.685 1.448,1.027 2.377,1.027 0.687,0 1.311,-0.196 1.874,-0.587 C 0.553,5.321 0.961,4.806 1.214,4.168 H 0.454 C 0.091,4.833 -0.45,5.272 -1.169,5.484 -1.402,5.553 -1.674,5.588 -1.983,5.588 -2.292,5.588 -2.607,5.514 -2.93,5.366 -3.252,5.219 -3.533,5.019 -3.773,4.77 -4.283,4.239 -4.537,3.598 -4.537,2.846 c 0,-0.746 0.254,-1.383 0.764,-1.913 0.524,-0.547 1.154,-0.82 1.889,-0.82 0.5,0 0.959,0.132 1.376,0.395 0.418,0.263 0.742,0.612 0.972,1.045 H 1.223 C 0.974,0.912 0.567,0.394 0,0" /></g><g
           transform="translate(49.4327,1.1136)"
           id="g56"><path
             id="path58"
             style="fill:#bf994c;fill-opacity:1;fill-rule:nonzero;stroke:none"
             d="M 0,0 V 6.708 H 0.691 V 3.689 h 3.048 v 3.019 h 0.69 V 0 H 3.739 V 2.998 H 0.691 L 0.691,0 Z" /></g><g
           transform="translate(59.2926,1.1136)"
           id="g60"><path
             id="path62"
             style="fill:#bf994c;fill-opacity:1;fill-rule:nonzero;stroke:none"
             d="M 0,0 V 6.708 H 3.985 V 6.067 H 0.691 V 3.68 H 3.887 V 3.028 H 0.691 V 0.641 H 3.985 V 0 Z" /></g><g
           transform="translate(77.5703,4.4405)"
           id="g64"><path
             id="path66"
             style="fill:#bf994c;fill-opacity:1;fill-rule:nonzero;stroke:none"
             d="M 0,0 C 0.385,0 0.704,0.13 0.957,0.39 1.214,0.653 1.342,0.983 1.342,1.379 1.342,1.775 1.22,2.098 0.977,2.348 0.733,2.598 0.408,2.722 0,2.722 H -1.558 V 0 Z M 1.406,-0.104 C 1,-0.482 0.499,-0.671 -0.098,-0.671 h -1.46 v -2.654 h -0.691 v 6.708 h 2.151 c 0.593,0 1.094,-0.187 1.504,-0.562 0.417,-0.382 0.626,-0.868 0.626,-1.46 0,-0.588 -0.209,-1.075 -0.626,-1.465" /></g><g
           transform="translate(84.4904,1.1136)"
           id="g68"><path
             id="path70"
             style="fill:#bf994c;fill-opacity:1;fill-rule:nonzero;stroke:none"
             d="M 0,0 V 6.708 H 3.985 V 6.067 H 0.691 V 3.68 H 3.887 V 3.028 H 0.691 V 0.641 H 3.985 V 0 Z" /></g><g
           transform="translate(96.1552,4.4277)"
           id="g72"><path
             id="path74"
             style="fill:#bf994c;fill-opacity:1;fill-rule:nonzero;stroke:none"
             d="M 0,0 C 0.389,0 0.708,0.132 0.957,0.395 1.214,0.666 1.342,0.996 1.342,1.387 1.342,1.778 1.22,2.1 0.977,2.353 0.733,2.606 0.408,2.733 0,2.733 H -1.558 V 0 Z M 1.406,-0.093 C 1.04,-0.435 0.597,-0.622 0.076,-0.655 L 2.141,-3.314 H 1.214 l -1.967,2.653 h -0.805 v -2.653 h -0.691 v 6.708 h 2.151 C 0.499,3.394 1,3.205 1.406,2.827 1.823,2.437 2.032,1.952 2.032,1.371 2.032,0.784 1.823,0.296 1.406,-0.093" /></g><g
           transform="translate(103.9139,7.1803)"
           id="g76"><path
             id="path78"
             style="fill:#bf994c;fill-opacity:1;fill-rule:nonzero;stroke:none"
             d="M 0,0 V -2.387 H 3.196 V -3.039 H 0 V -6.067 H -0.691 V 0.641 H 3.294 V 0 Z" /></g><g
           transform="translate(116.2393,1.6164)"
           id="g80"><path
             id="path82"
             style="fill:#bf994c;fill-opacity:1;fill-rule:nonzero;stroke:none"
             d="m 0,0 c -0.447,-0.394 -1.042,-0.592 -1.785,-0.592 -0.75,0 -1.348,0.198 -1.796,0.592 -0.473,0.418 -0.71,0.99 -0.71,1.716 V 6.205 H -3.6 V 1.618 c 0,-0.504 0.182,-0.892 0.547,-1.164 0.318,-0.237 0.741,-0.355 1.268,-0.355 0.819,0 1.371,0.276 1.657,0.829 0.099,0.19 0.148,0.421 0.148,0.69 V 6.205 H 0.71 V 1.716 C 0.71,0.99 0.473,0.418 0,0" /></g><g
           transform="translate(127.3723,5.8879)"
           id="g84"><path
             id="path86"
             style="fill:#bf994c;fill-opacity:1;fill-rule:nonzero;stroke:none"
             d="M 0,0 -2.012,-5.169 -4.035,0 -5.07,-4.774 h -0.71 l 1.568,7.152 2.2,-5.742 2.2,5.742 1.558,-7.152 h -0.7 z" /></g><g
           transform="translate(133.909,1.1136)"
           id="g88"><path
             id="path90"
             style="fill:#bf994c;fill-opacity:1;fill-rule:nonzero;stroke:none"
             d="M 0,0 V 6.708 H 3.985 V 6.067 H 0.691 V 3.68 H 3.887 V 3.028 H 0.691 V 0.641 H 3.985 V 0 Z" /></g><g
           transform="translate(145.5737,4.4277)"
           id="g92"><path
             id="path94"
             style="fill:#bf994c;fill-opacity:1;fill-rule:nonzero;stroke:none"
             d="M 0,0 C 0.389,0 0.708,0.132 0.957,0.395 1.214,0.666 1.342,0.996 1.342,1.387 1.342,1.778 1.22,2.1 0.977,2.353 0.733,2.606 0.408,2.733 0,2.733 H -1.558 V 0 Z M 1.406,-0.093 C 1.04,-0.435 0.597,-0.622 0.076,-0.655 L 2.141,-3.314 H 1.214 l -1.967,2.653 h -0.805 v -2.653 h -0.691 v 6.708 h 2.151 C 0.499,3.394 1,3.205 1.406,2.827 1.823,2.437 2.032,1.952 2.032,1.371 2.032,0.784 1.823,0.296 1.406,-0.093" /></g><g
           transform="translate(155.236,1.1136)"
           id="g96"><path
             id="path98"
             style="fill:#bf994c;fill-opacity:1;fill-rule:nonzero;stroke:none"
             d="m 0,0 h -0.69 v 3.155 l -2.545,3.553 h 0.887 L -0.345,3.837 1.657,6.708 H 2.535 L 0,3.157 Z" /></g></g></g></g></svg>